<?xml version="1.0" encoding="iso-8859-1"?>
<!-- Generator: Adobe Illustrator 18.1.1, SVG Export Plug-In . SVG Version: 6.00 Build 0)  -->
<svg version="1.1" id="Capa_1" xmlns="http://www.w3.org/2000/svg" xmlns:xlink="http://www.w3.org/1999/xlink" x="0px" y="0px"
	 viewBox="0 0 23 23" style="enable-background:new 0 0 23 23;" xml:space="preserve">
<g>
	<g>
		<path style="fill:#030104;" d="M11.5,13c2.764,0,5-2.238,5-5s-2.236-5-5-5s-5,2.238-5,5S8.736,13,11.5,13z M11.5,5
			c1.654,0,3,1.346,3,3s-1.346,3-3,3s-3-1.346-3-3S9.846,5,11.5,5z"/>
		<path style="fill:#030104;" d="M19.5,14c1.381,0,2.5-1.117,2.5-2.5c0-1.381-1.119-2.5-2.5-2.5c-1.382,0-2.5,1.119-2.5,2.5
			C17,12.883,18.118,14,19.5,14z M19.5,10c0.827,0,1.5,0.673,1.5,1.5S20.327,13,19.5,13S18,12.326,18,11.5S18.673,10,19.5,10z"/>
		<path style="fill:#030104;" d="M19.5,14.59c-1.331,0-2.332,0.406-2.917,0.969C15.468,14.641,13.705,14,11.5,14
			c-2.266,0-3.995,0.648-5.092,1.564C5.812,14.998,4.8,14.589,3.5,14.589c-2.188,0-3.5,1.091-3.5,2.183
			c0,0.545,1.312,1.092,3.5,1.092c0.604,0,1.146-0.051,1.623-0.133c-0.01,0.09-0.04,0.18-0.04,0.27c0,1,2.405,2,6.417,2
			c3.762,0,6.417-1,6.417-2c0-0.085-0.011-0.17-0.021-0.255c0.463,0.073,0.996,0.118,1.604,0.118c2.051,0,3.5-0.547,3.5-1.092
			C23,15.68,21.627,14.59,19.5,14.59z M3.5,16.863c-1.309,0-2.068-0.207-2.417-0.354c0.239-0.405,1.003-0.92,2.417-0.92
			c1.107,0,1.837,0.351,2.208,0.706c-0.084,0.114-0.169,0.227-0.235,0.344C5.021,16.757,4.365,16.863,3.5,16.863z M11.5,18
			c-2.163,0-3.501-0.312-4.184-0.561C7.837,16.76,9.234,16,11.5,16c2.169,0,3.59,0.761,4.148,1.425C14.893,17.694,13.486,18,11.5,18
			z M19.5,16.863c-0.914,0-1.546-0.103-1.973-0.213c-0.072-0.127-0.155-0.252-0.248-0.375c0.356-0.345,1.071-0.685,2.221-0.685
			c1.324,0,2.141,0.501,2.404,0.911C21.514,16.663,20.699,16.863,19.5,16.863z"/>
		<path style="fill:#030104;" d="M3.5,14C4.881,14,6,12.881,6,11.5C6,10.121,4.881,9,3.5,9C2.118,9,1,10.121,1,11.5
			C1,12.88,2.118,14,3.5,14z M3.5,10C4.327,10,5,10.673,5,11.5S4.327,13,3.5,13S2,12.326,2,11.5S2.673,10,3.5,10z"/>
	</g>
</g>
<g>
</g>
<g>
</g>
<g>
</g>
<g>
</g>
<g>
</g>
<g>
</g>
<g>
</g>
<g>
</g>
<g>
</g>
<g>
</g>
<g>
</g>
<g>
</g>
<g>
</g>
<g>
</g>
<g>
</g>
</svg>
