<?xml version="1.0" encoding="iso-8859-1"?>
<!-- Generator: Adobe Illustrator 18.1.1, SVG Export Plug-In . SVG Version: 6.00 Build 0)  -->
<svg version="1.1" id="Capa_1" xmlns="http://www.w3.org/2000/svg" xmlns:xlink="http://www.w3.org/1999/xlink" x="0px" y="0px"
	 viewBox="0 0 23 23" style="enable-background:new 0 0 23 23;" xml:space="preserve">
<g>
	<g>
		<path style="fill:#030104;" d="M11.5,13c1.381,0,2.631-0.56,3.536-1.465C15.94,10.63,16.5,9.38,16.5,8s-0.56-2.631-1.464-3.535
			C14.131,3.56,12.881,3,11.5,3S8.869,3.56,7.964,4.465C7.06,5.369,6.5,6.619,6.5,8s0.56,2.631,1.464,3.535
			C8.869,12.439,10.119,13,11.5,13z"/>
		<path style="fill:#030104;" d="M19.5,14c0.69,0,1.315-0.279,1.768-0.731S22,12.192,22,11.5c0-0.69-0.279-1.315-0.732-1.768
			C20.815,9.279,20.19,9,19.5,9c-0.691,0-1.316,0.279-1.769,0.732C17.279,10.185,17,10.81,17,11.5c0,0.691,0.279,1.316,0.731,1.769
			S18.809,14,19.5,14z"/>
		<path style="fill:#030104;" d="M19.5,14.59c-1.331,0-2.332,0.406-2.917,0.968C15.468,14.641,13.705,14,11.5,14
			c-2.266,0-3.995,0.648-5.092,1.564C5.812,14.998,4.8,14.59,3.5,14.59c-2.188,0-3.5,1.09-3.5,2.182c0,0.545,1.312,1.092,3.5,1.092
			c0.604,0,1.146-0.051,1.623-0.133c-0.01,0.091-0.04,0.18-0.04,0.27c0,1,2.406,2,6.417,2c3.762,0,6.417-1,6.417-2
			c0-0.085-0.011-0.17-0.02-0.255c0.463,0.073,0.995,0.118,1.603,0.118c2.051,0,3.5-0.547,3.5-1.092
			C23,15.68,21.627,14.59,19.5,14.59z"/>
		<path style="fill:#030104;" d="M3.5,14c0.69,0,1.315-0.279,1.768-0.732S6,12.189,6,11.5c0-0.689-0.279-1.314-0.732-1.768
			C4.815,9.28,4.19,9,3.5,9C2.809,9,2.184,9.28,1.731,9.732C1.279,10.186,1,10.811,1,11.5c0,0.69,0.279,1.315,0.731,1.768
			C2.184,13.72,2.809,14,3.5,14z"/>
	</g>
</g>
<g>
</g>
<g>
</g>
<g>
</g>
<g>
</g>
<g>
</g>
<g>
</g>
<g>
</g>
<g>
</g>
<g>
</g>
<g>
</g>
<g>
</g>
<g>
</g>
<g>
</g>
<g>
</g>
<g>
</g>
</svg>
