<?xml version="1.0" encoding="iso-8859-1"?>
<!-- Generator: Adobe Illustrator 18.1.1, SVG Export Plug-In . SVG Version: 6.00 Build 0)  -->
<svg version="1.1" id="Capa_1" xmlns="http://www.w3.org/2000/svg" xmlns:xlink="http://www.w3.org/1999/xlink" x="0px" y="0px"
	 viewBox="0 0 17 17" style="enable-background:new 0 0 17 17;" xml:space="preserve">
<g>
	<path style="fill:#030104;" d="M13.5,5c0-1.381-0.56-2.631-1.464-3.535C11.131,0.56,9.881,0,8.5,0S5.869,0.56,4.964,1.465
		C4.06,2.369,3.5,3.619,3.5,5s0.56,2.631,1.464,3.535C5.869,9.44,7.119,10,8.5,10s2.631-0.56,3.536-1.465
		C12.94,7.631,13.5,6.381,13.5,5z"/>
	<path style="fill:#030104;" d="M2.5,15c0,1,2.25,2,6,2c3.518,0,6-1,6-2c0-2-2.354-4-6-4C4.75,11,2.5,13,2.5,15z"/>
</g>
<g>
</g>
<g>
</g>
<g>
</g>
<g>
</g>
<g>
</g>
<g>
</g>
<g>
</g>
<g>
</g>
<g>
</g>
<g>
</g>
<g>
</g>
<g>
</g>
<g>
</g>
<g>
</g>
<g>
</g>
</svg>
