<?xml version="1.0" encoding="iso-8859-1"?>
<!-- Generator: Adobe Illustrator 18.1.1, SVG Export Plug-In . SVG Version: 6.00 Build 0)  -->
<svg version="1.1" id="Capa_1" xmlns="http://www.w3.org/2000/svg" xmlns:xlink="http://www.w3.org/1999/xlink" x="0px" y="0px"
	 viewBox="0 0 17 17" style="enable-background:new 0 0 17 17;" xml:space="preserve">
<g>
	<g>
		<path style="fill:#030104;" d="M8.5,2c1.654,0,3,1.346,3,3s-1.346,3-3,3s-3-1.346-3-3S6.846,2,8.5,2 M8.5,0c-2.764,0-5,2.238-5,5
			s2.236,5,5,5s5-2.238,5-5S11.264,0,8.5,0z"/>
	</g>
	<g>
		<g>
			<path style="fill:#030104;" d="M8.5,13c2.021,0,3.301,0.771,3.783,1.445C11.6,14.705,10.314,15,8.5,15
				c-1.984,0-3.206-0.305-3.818-0.542C5.141,13.743,6.459,13,8.5,13 M8.5,11c-3.75,0-6,2-6,4c0,1,2.25,2,6,2c3.518,0,6-1,6-2
				C14.5,13,12.146,11,8.5,11z"/>
		</g>
	</g>
</g>
<g>
</g>
<g>
</g>
<g>
</g>
<g>
</g>
<g>
</g>
<g>
</g>
<g>
</g>
<g>
</g>
<g>
</g>
<g>
</g>
<g>
</g>
<g>
</g>
<g>
</g>
<g>
</g>
<g>
</g>
</svg>
